# xmcd CD database file generated by LOLA_Freedb v0.9beta0
# 
# Track frame offsets:
#      150
#      19013
#      35243
#      61220
#      81746
#      96562
#      109072
#      122630
#      139791
#      149304
#      158399
#      170474
#      185081
#      198242
#      226511
#      245207
#      273617
#      286622
#      299929
# 
# Disc length: 4153 seconds
# 
# Revision: 0 
# Processed by: cddbd v1.5.2PL0 Copyright (c) Steve Scherf et al.
# Submitted via: LOLA_Freedb v0.9beta0
# 
DISCID=23103713
DTITLE=Ray Charles - 20 Greatest Hits
DYEAR=1970
DGENRE=
TTITLE0=Ray Charles - I Can't Stop Loving You
TTITLE1=Ray Charles - Georgia On My Mind
TTITLE2=Ray Charles - Yesterday
TTITLE3=Ray Charles - Take These Chains From My Heart
TTITLE4=Ray Charles - What'd I Say
TTITLE5=Ray Charles - Here We Go Again
TTITLE6=Ray Charles - Unchain My Heart
TTITLE7=Ray Charles - Eleanor Rigby
TTITLE8=Ray Charles - Ruby
TTITLE9=Ray Charles - Busted
TTITLE10=Ray Charles - Hit The Road Jack
TTITLE11=Ray Charles - Born To Loose
TTITLE12=Ray Charles - Crying Time
TTITLE13=Ray Charles - I've Got A Woman
TTITLE14=Ray Charles and Betty Carter - Baby It's Cold Outside
TTITLE15=Ray Charles - Makin' Whoopie
TTITLE16=Ray Charles - Let's Go Get Stoned
TTITLE17=Ray Charles - Makin' Believe
TTITLE18=Ray Charles - Don't Set Me Free
EXTD=
EXTT0=
EXTT1=
EXTT2=
EXTT3=
EXTT4=
EXTT5=
EXTT6=
EXTT7=
EXTT8=
EXTT9=
EXTT10=
EXTT11=
EXTT12=
EXTT13=
EXTT14=
EXTT15=
EXTT16=
EXTT17=
EXTT18=
PLAYORDER=
